<svg id="visual" viewBox="0 0 960 540" width="960" height="540" xmlns="http://www.w3.org/2000/svg" xmlns:xlink="http://www.w3.org/1999/xlink" version="1.1"><rect x="0" y="0" width="960" height="540" fill="#001220"></rect><defs><linearGradient id="grad1_0" x1="43.8%" y1="0%" x2="100%" y2="100%"><stop offset="14.444444444444446%" stop-color="#001220" stop-opacity="1"></stop><stop offset="85.55555555555554%" stop-color="#001220" stop-opacity="1"></stop></linearGradient></defs><defs><linearGradient id="grad2_0" x1="0%" y1="0%" x2="56.3%" y2="100%"><stop offset="14.444444444444446%" stop-color="#001220" stop-opacity="1"></stop><stop offset="85.55555555555554%" stop-color="#001220" stop-opacity="1"></stop></linearGradient></defs><g transform="translate(960, 0)"><path d="M0 270C-35.8 264.6 -71.5 259.2 -101 243.9C-130.5 228.6 -153.8 203.5 -179.6 179.6C-205.5 155.7 -233.9 133.1 -249.4 103.3C-265 73.6 -267.5 36.8 -270 0L0 0Z" fill="#FBAE3C"></path></g><g transform="translate(0, 540)"><path d="M0 -270C28.3 -251.1 56.7 -232.3 92.2 -222.7C127.8 -213 170.5 -212.7 190.9 -190.9C211.4 -169.2 209.5 -126.1 219 -90.7C228.4 -55.3 249.2 -27.7 270 0L0 0Z" fill="#FBAE3C"></path></g></svg>